<svg version="1.1"
	 xmlns="http://www.w3.org/2000/svg" xmlns:xlink="http://www.w3.org/1999/xlink" xmlns:a="http://ns.adobe.com/AdobeSVGViewerExtensions/3.0/"
	 x="0px" y="0px" width="26px" height="26px" viewBox="0 0 26 26" style="enable-background:new 0 0 26 26;" xml:space="preserve">
<defs>
</defs>
<path d="M22.5,11.8L26,10l-1.6-3.9l-3.6,1.2c-0.5-0.7-1.1-1.3-1.8-1.9l1.2-3.7l-3.9-1.6l-1.8,3.5c-0.8-0.1-1.7-0.1-2.5,0L10,0
	L6.2,1.6l1.3,3.9C6.8,6,6.3,6.6,5.8,7.2L1.7,5.9L0.1,9.7l3.9,2c-0.1,0.7-0.1,1.4,0,2.1l-4,2.1l1.6,3.9l4.2-1.3
	c0.4,0.5,0.9,1.1,1.4,1.5l-1.4,4.3l3.9,1.6l2-3.9c0.7,0.1,1.5,0.2,2.2,0.1l2,3.9l3.9-1.6l-1.2-3.9c0.7-0.5,1.3-1,1.8-1.6l3.9,1.2
	l1.6-3.9l-3.4-1.8C22.5,13.6,22.6,12.7,22.5,11.8z M13.2,17.3c-2.5,0-4.5-2-4.5-4.5s2-4.5,4.5-4.5s4.5,2,4.5,4.5
	S15.7,17.3,13.2,17.3z"/>
</svg>
