<svg version="1.1"
	 xmlns="http://www.w3.org/2000/svg" xmlns:xlink="http://www.w3.org/1999/xlink" xmlns:a="http://ns.adobe.com/AdobeSVGViewerExtensions/3.0/"
	 x="0px" y="0px" width="158.3px" height="36.6px" viewBox="0 0 158.3 36.6" style="enable-background:new 0 0 158.3 36.6;"
	 xml:space="preserve">
<style type="text/css">
	.st0{fill:#000091;}
	.st1{fill:#66CA91;}
</style>
<defs>
</defs>
<g>
	<path class="st0" d="M10.1,29.3c-1.7,0-3.2-0.2-4.5-0.5c-1.3-0.3-2.3-0.7-3.1-1.3C1.6,27,1,26.4,0.6,25.8C0.2,25.2,0,24.6,0,24
		c0-0.4,0.1-0.8,0.3-1.2c0.2-0.4,0.5-0.7,0.7-1c0.3-0.3,0.5-0.5,0.8-0.7C2.1,21,2.2,21,2.3,21c0.4,0.5,0.9,0.9,1.4,1.4
		c0.6,0.4,1.2,0.8,1.8,1.1c0.7,0.3,1.4,0.6,2.2,0.8c0.8,0.2,1.6,0.3,2.4,0.3c1.6,0,2.7-0.3,3.6-0.8c0.8-0.6,1.2-1.3,1.2-2.4
		c0-0.6-0.2-1.1-0.5-1.4c-0.3-0.4-0.7-0.7-1.2-0.9c-0.5-0.2-1.1-0.4-1.8-0.6c-0.7-0.2-1.4-0.3-2.2-0.5c-1-0.2-2.1-0.5-3.1-0.9
		c-1-0.3-1.9-0.8-2.7-1.4c-0.8-0.6-1.5-1.3-1.9-2.2c-0.5-0.9-0.7-2-0.7-3.3c0-1.2,0.2-2.3,0.7-3.3c0.5-1,1.2-1.8,2-2.5
		c0.9-0.7,2-1.2,3.2-1.6c1.3-0.4,2.7-0.6,4.2-0.6c1.6,0,3,0.1,4.1,0.4c1.2,0.3,2.1,0.7,2.9,1.1c0.8,0.5,1.4,1,1.8,1.5
		c0.4,0.6,0.6,1.1,0.6,1.7c0,0.5-0.1,0.9-0.4,1.3c-0.2,0.4-0.5,0.7-0.8,1c-0.3,0.3-0.6,0.5-0.8,0.6C18,9.9,17.9,10,17.8,10
		c-0.8-0.9-1.8-1.7-3-2.3c-1.2-0.6-2.5-0.9-3.9-0.9C9.4,6.7,8.3,7,7.5,7.6C6.8,8.2,6.4,8.9,6.4,9.8c0,0.6,0.1,1,0.4,1.4
		C7.1,11.5,7.5,11.8,8,12c0.5,0.2,1.1,0.4,1.8,0.5c0.7,0.1,1.4,0.3,2.2,0.5c1.2,0.3,2.3,0.6,3.4,1c1.1,0.4,2,0.9,2.8,1.5
		c0.8,0.6,1.5,1.4,1.9,2.3c0.5,0.9,0.7,1.9,0.7,3.2c0,2.6-0.9,4.6-2.7,6.1C16.2,28.5,13.6,29.3,10.1,29.3z"/>
	<path class="st0" d="M32.2,9.6c1-0.7,2.3-1,3.9-1c1.3,0,2.4,0.2,3.3,0.6c0.9,0.4,1.7,1,2.3,1.8c0.6,0.8,1,1.6,1.3,2.6
		c0.3,1,0.4,2.1,0.4,3.2v9.3c0,1-0.2,1.7-0.7,2.1c-0.5,0.4-1.1,0.6-1.8,0.6h-0.6c-0.8,0-1.4-0.2-1.9-0.6c-0.5-0.4-0.7-1.1-0.7-2.1
		v-8.5c0-1.4-0.3-2.4-1-3.2c-0.6-0.8-1.5-1.2-2.7-1.2c-1.3,0-2.4,0.4-3.2,1.2c-0.8,0.8-1.2,1.9-1.2,3.4v8.2c0,1-0.2,1.7-0.7,2.1
		c-0.5,0.4-1.1,0.6-1.8,0.6h-0.6c-0.8,0-1.4-0.2-1.9-0.6c-0.5-0.4-0.7-1.1-0.7-2.1V1.3c0-0.1,0.2-0.2,0.6-0.4
		c0.4-0.2,0.9-0.2,1.5-0.2c0.4,0,0.9,0.1,1.3,0.2c0.4,0.1,0.8,0.4,1.1,0.7c0.3,0.3,0.6,0.8,0.8,1.4c0.2,0.6,0.3,1.3,0.3,2.3v6.9
		C30.4,11.1,31.2,10.3,32.2,9.6z"/>
	<path class="st0" d="M56.9,29.3c-1.6,0-3-0.2-4.3-0.7c-1.3-0.5-2.4-1.2-3.3-2.1c-0.9-0.9-1.6-2-2.1-3.3c-0.5-1.3-0.8-2.7-0.8-4.2
		c0-1.5,0.3-2.9,0.8-4.2c0.5-1.3,1.2-2.3,2.2-3.2c0.9-0.9,2-1.6,3.3-2.1C54,8.9,55.5,8.6,57,8.6c1.6,0,3,0.3,4.3,0.8
		c1.3,0.5,2.4,1.2,3.3,2.1c0.9,0.9,1.6,2,2.1,3.3c0.5,1.3,0.8,2.7,0.8,4.2s-0.3,2.9-0.8,4.2c-0.5,1.3-1.2,2.3-2.1,3.2
		c-0.9,0.9-2,1.6-3.3,2.1C60,29,58.5,29.3,56.9,29.3z M57,24.8c0.8,0,1.5-0.1,2.2-0.4c0.7-0.3,1.3-0.7,1.7-1.2
		c0.5-0.5,0.9-1.1,1.2-1.8c0.3-0.7,0.4-1.5,0.4-2.3c0-0.9-0.1-1.7-0.4-2.4c-0.3-0.7-0.6-1.4-1.1-1.9c-0.5-0.5-1.1-0.9-1.7-1.2
		C58.5,13.2,57.8,13,57,13c-0.8,0-1.5,0.1-2.2,0.4c-0.7,0.3-1.3,0.7-1.7,1.2c-0.5,0.5-0.9,1.1-1.2,1.9c-0.3,0.7-0.4,1.5-0.4,2.4
		c0,0.8,0.1,1.6,0.4,2.3c0.3,0.7,0.7,1.3,1.2,1.9c0.5,0.5,1.1,0.9,1.7,1.2C55.4,24.6,56.2,24.8,57,24.8z"/>
	<path class="st0" d="M76.4,33.9c0,1-0.2,1.7-0.7,2.1c-0.5,0.4-1.1,0.6-1.8,0.6h-0.6c-0.8,0-1.4-0.2-1.9-0.6
		c-0.5-0.4-0.7-1.1-0.7-2.2V9.5c0-0.1,0.2-0.2,0.6-0.4c0.4-0.2,0.9-0.3,1.5-0.3c0.4,0,0.8,0,1.1,0.1c0.4,0.1,0.7,0.3,1,0.5
		c0.3,0.3,0.6,0.6,0.8,1c0.2,0.4,0.4,1,0.5,1.7c0.6-1.1,1.5-2,2.6-2.7c1.1-0.7,2.4-1,3.9-1c1.3,0,2.6,0.2,3.7,0.7
		c1.1,0.5,2.1,1.2,2.9,2.1c0.8,0.9,1.4,2,1.9,3.2c0.4,1.3,0.7,2.7,0.7,4.3c0,1.5-0.2,2.9-0.7,4.2c-0.4,1.3-1.1,2.4-1.9,3.3
		c-0.8,0.9-1.8,1.6-2.9,2.1c-1.1,0.5-2.4,0.8-3.8,0.8c-1.5,0-2.8-0.3-3.9-1c-1.1-0.7-1.9-1.5-2.4-2.5V33.9z M76.4,20
		c0,0.7,0.1,1.3,0.4,1.9c0.3,0.6,0.6,1.1,1,1.5c0.4,0.4,1,0.7,1.6,1c0.6,0.2,1.2,0.3,1.9,0.3c1.5,0,2.8-0.5,3.7-1.6
		c0.9-1.1,1.4-2.5,1.4-4.2c0-1.7-0.5-3.2-1.4-4.2c-0.9-1.1-2.1-1.6-3.7-1.6c-1.2,0-2.2,0.3-3.1,0.9c-0.8,0.6-1.5,1.4-1.9,2.3V20z"/>
	<path class="st1" d="M98.2,29.1c-0.9,0-1.7-0.1-2.3-0.4c-0.6-0.3-1-0.6-1.3-1.1c-0.3-0.5-0.5-1.1-0.5-1.7c0-0.7,0-1.4,0.2-2.2
		l4.3-20.3c0.2-1,0.5-1.7,0.9-2.1c0.4-0.4,1-0.6,1.7-0.6h0.6c0.8,0,1.4,0.2,2,0.6c0.5,0.4,0.7,1.1,0.5,2.2L100,23.9
		c-0.2,1.1-0.2,1.9,0,2.4c0.2,0.5,0.7,0.8,1.6,0.9c-0.1,0.4-0.3,0.8-0.5,1c-0.2,0.3-0.6,0.5-1,0.7C99.6,29,99,29.1,98.2,29.1z"/>
	<path class="st1" d="M108.8,29.1c-0.9,0-1.7-0.1-2.3-0.4c-0.6-0.3-1-0.6-1.3-1.1c-0.3-0.5-0.5-1.1-0.5-1.7c0-0.7,0-1.4,0.2-2.2
		l2.6-12.1c0.2-1,0.5-1.7,0.9-2.1c0.4-0.4,1-0.6,1.7-0.6h0.6c0.4,0,0.7,0,1.1,0.1c0.3,0.1,0.6,0.2,0.9,0.4c0.2,0.2,0.4,0.5,0.5,0.8
		c0.1,0.3,0.1,0.8,0,1.3l-2.6,12.2c-0.2,1.1-0.2,1.9,0,2.4c0.2,0.5,0.7,0.8,1.6,0.9c-0.1,0.4-0.3,0.8-0.5,1c-0.2,0.3-0.6,0.5-1,0.7
		C110.2,29,109.6,29.1,108.8,29.1z M112.1,5.8c-1,0-1.8-0.2-2.3-0.7c-0.5-0.5-0.8-1-0.8-1.8c0-0.9,0.3-1.7,0.9-2.4
		c0.6-0.6,1.4-0.9,2.4-0.9c1,0,1.8,0.2,2.3,0.7c0.5,0.5,0.8,1,0.8,1.8c0,0.9-0.3,1.7-0.9,2.4C113.9,5.5,113.1,5.8,112.1,5.8z"/>
	<path class="st1" d="M123.1,12.4c0.8-1.2,1.7-2.2,2.9-2.8c1.1-0.7,2.4-1,3.9-1c2,0,3.6,0.6,4.7,1.8c1.1,1.2,1.7,2.7,1.7,4.6
		c0,0.7-0.1,1.5-0.3,2.5c-0.2,1-0.5,2.1-0.8,3.3c-0.3,1-0.5,1.9-0.7,2.6c-0.2,0.8-0.3,1.3-0.3,1.7c0,0.6,0.1,1,0.4,1.2
		c0.3,0.3,0.7,0.4,1.2,0.5c0,0,0,0.1-0.1,0.4c-0.1,0.2-0.2,0.5-0.5,0.8c-0.2,0.3-0.6,0.6-1,0.8c-0.5,0.2-1.1,0.4-1.9,0.4
		c-1.3,0-2.3-0.3-3-0.9c-0.6-0.6-0.9-1.5-0.9-2.5c0-0.6,0.1-1.3,0.3-2c0.2-0.8,0.4-1.7,0.7-2.8c0.3-0.9,0.5-1.8,0.6-2.5
		c0.2-0.7,0.2-1.3,0.2-1.7c0-1-0.3-1.8-0.8-2.4c-0.6-0.6-1.3-0.8-2.4-0.8c-1,0-1.8,0.2-2.5,0.7c-0.7,0.5-1.4,1.2-2,2.2l-2.1,10
		c-0.2,1-0.5,1.7-0.9,2.1c-0.4,0.4-1,0.6-1.7,0.6h-0.6c-0.8,0-1.4-0.2-2-0.6c-0.5-0.4-0.7-1.1-0.5-2.1l3.6-17c0-0.1,0.2-0.1,0.5-0.2
		c0.3-0.1,0.7-0.1,1.1-0.1c0.4,0,0.8,0.1,1.2,0.2c0.4,0.1,0.7,0.3,1,0.6c0.3,0.3,0.5,0.6,0.7,1.1C123,11.2,123.1,11.7,123.1,12.4z"
		/>
	<path class="st1" d="M153.1,29.1c-0.6,0-1.1-0.1-1.5-0.2c-0.4-0.1-0.8-0.4-1.2-0.7c-0.4-0.3-0.7-0.8-1.1-1.4
		c-0.4-0.6-0.8-1.3-1.2-2.2l-2.8-5.2c-0.1,0.4-0.1,0.7-0.2,1c-0.1,0.3-0.1,0.7-0.2,1.1c-0.1,0.4-0.2,0.8-0.3,1.3l-0.7,3.4
		c-0.2,1-0.5,1.7-0.9,2.1c-0.4,0.4-1,0.6-1.7,0.6h-0.6c-0.8,0-1.4-0.2-2-0.6c-0.5-0.4-0.7-1.1-0.5-2.1L143,3.4
		c0.2-1,0.5-1.7,0.9-2.1c0.4-0.4,1-0.6,1.7-0.6h0.6c0.8,0,1.4,0.2,1.9,0.6c0.5,0.4,0.7,1.1,0.5,2.2L145.9,17l9.4-8.4
		c0,0,0.2,0,0.5,0.1c0.3,0.1,0.7,0.2,1,0.4c0.4,0.2,0.7,0.5,1,0.9c0.3,0.4,0.5,0.9,0.5,1.5c0,0.9-0.6,1.9-1.7,2.8l-6.1,4.9l2.2,3.6
		c0.3,0.6,0.7,1.2,0.9,1.6c0.3,0.4,0.5,0.7,0.8,0.9c0.3,0.2,0.6,0.4,0.9,0.5c0.3,0.1,0.7,0.2,1.1,0.2c0.1,0,0.1,0.2,0.1,0.5
		c0,0.3-0.1,0.7-0.4,1.1c-0.2,0.4-0.6,0.8-1,1.1C154.7,28.9,154,29.1,153.1,29.1z"/>
</g>
</svg>
