<svg version="1.1"
	 xmlns="http://www.w3.org/2000/svg" xmlns:xlink="http://www.w3.org/1999/xlink" xmlns:a="http://ns.adobe.com/AdobeSVGViewerExtensions/3.0/"
	 x="0px" y="0px" width="15.1px" height="15.1px" viewBox="0 0 15.1 15.1" style="enable-background:new 0 0 15.1 15.1;"
	 xml:space="preserve" fill=" #000091">
<defs>
</defs>
<g>
	<path d="M2.2,10.4c-0.7,0.7-0.7,1.8,0,2.5c0.3,0.3,0.8,0.5,1.2,0.5c0.5,0,0.9-0.2,1.3-0.5c0.7-0.7,0.7-1.8,0-2.5
		C4,9.7,2.9,9.7,2.2,10.4z"/>
	<path d="M7.5,3.6C7.5,3.6,7.5,3.6,7.5,3.6c1,0,1.8-0.8,1.8-1.8c0-1-0.8-1.8-1.8-1.8c-1,0-1.8,0.8-1.8,1.8C5.7,2.8,6.5,3.6,7.5,3.6z
		"/>
	<path d="M3.4,5.3c0.5,0,0.9-0.2,1.3-0.5c0.7-0.7,0.7-1.8,0-2.5C4,1.5,2.9,1.5,2.2,2.3c-0.7,0.7-0.7,1.8,0,2.5
		C2.5,5.1,3,5.3,3.4,5.3z"/>
	<path d="M1.8,9.3c1,0,1.8-0.8,1.8-1.8c0-1-0.8-1.8-1.8-1.8C0.8,5.8,0,6.6,0,7.6C0,8.6,0.8,9.3,1.8,9.3L1.8,9.3z"/>
	<path d="M11.6,5.2c0.5,0,0.9-0.2,1.3-0.5c0.7-0.7,0.7-1.8,0-2.5c0,0,0,0,0,0c-0.7-0.7-1.8-0.7-2.5,0c-0.7,0.7-0.7,1.8,0,2.5
		C10.7,5,11.1,5.2,11.6,5.2z"/>
	<path d="M13.3,5.7c-1,0-1.8,0.8-1.8,1.8c0,0,0,0,0,0c0,0,0,0,0,0c0,1,0.8,1.8,1.8,1.8s1.8-0.8,1.8-1.8c0,0,0,0,0,0c0,0,0,0,0-0.1
		C15.1,6.5,14.3,5.7,13.3,5.7z"/>
	<path d="M10.4,10.3c-0.7,0.7-0.7,1.8,0,2.5c0.4,0.3,0.8,0.5,1.3,0.5c0.5,0,0.9-0.2,1.3-0.5c0.7-0.7,0.7-1.8,0-2.5
		C12.2,9.7,11,9.7,10.4,10.3z"/>
	<path d="M7.5,11.5c-1,0-1.8,0.8-1.8,1.8c0,1,0.8,1.8,1.8,1.8c0,0,0,0,0,0c1,0,1.8-0.8,1.8-1.8C9.3,12.3,8.5,11.5,7.5,11.5z"/>
	<path d="M7.5,9.3c1,0,1.8-0.8,1.8-1.8S8.5,5.8,7.5,5.8c-1,0-1.8,0.8-1.8,1.8S6.6,9.3,7.5,9.3z"/>
</g>
</svg>
