<svg version="1.1"
	 xmlns="http://www.w3.org/2000/svg" xmlns:xlink="http://www.w3.org/1999/xlink" xmlns:a="http://ns.adobe.com/AdobeSVGViewerExtensions/3.0/"
	 x="0px" y="0px" width="21.9px" height="10.7px" viewBox="0 0 21.9 10.7" style="enable-background:new 0 0 21.9 10.7;"
	 xml:space="preserve" fill=" #000091">
<defs>
</defs>
<path d="M0,0v10.7h21.9V0H0z M7.3,7.4H6.2L4.2,4v3.4h-1V2.7h1.3l1.8,3.1V2.7h1V7.4z M11.8,7.4H8.6V2.7h3.1v0.8h-2v1.1h1.6v0.8H9.7
	v1.2h2.1V7.4z M17.6,7.4h-1.1l-0.9-3.3l-0.9,3.3h-1l-1.2-4.8h1.1L14.4,6l0.8-3.3h0.9L17,6l0.8-3.3h1L17.6,7.4z"/>
</svg>
