
<svg version="1.1"
	 xmlns="http://www.w3.org/2000/svg" xmlns:xlink="http://www.w3.org/1999/xlink" xmlns:a="http://ns.adobe.com/AdobeSVGViewerExtensions/3.0/"
	 x="0px" y="0px" width="15.5px" height="15.5px" viewBox="0 0 15.5 15.5" style="enable-background:new 0 0 15.5 15.5;"
	 xml:space="preserve" fill=" #000091">
<defs>
</defs>
<g>
	<path d="M4.3,2.9c0.2,0,0.4,0,0.5-0.1c0.5-0.3,0.6-0.9,0.4-1.4C4.9,0.9,4.3,0.8,3.8,1.1C3.4,1.3,3.2,2,3.5,2.4
		C3.7,2.8,4,2.9,4.3,2.9z"/>
	<path d="M1.4,10.3c-0.5,0.3-0.6,0.9-0.4,1.4c0.2,0.3,0.5,0.5,0.9,0.5c0.2,0,0.3,0,0.5-0.1c0.5-0.3,0.6-0.9,0.4-1.4
		C2.5,10.2,1.9,10,1.4,10.3z"/>
	<path d="M1.4,5.3c0.2,0.1,0.3,0.1,0.5,0.1c0.4,0,0.7-0.2,0.9-0.5C3,4.4,2.9,3.8,2.4,3.6C1.9,3.3,1.3,3.4,1,3.9
		C0.7,4.4,0.9,5,1.4,5.3z"/>
	<path d="M4.9,12.8L4.9,12.8c-0.5-0.3-1.1-0.1-1.4,0.4c-0.3,0.5-0.1,1.1,0.4,1.4c0.2,0.1,0.3,0.1,0.5,0.1c0.3,0,0.7-0.2,0.9-0.5
		C5.5,13.6,5.4,13,4.9,12.8z"/>
	<path d="M2,7.8c0-0.5-0.5-1-1-1c-0.6,0-1,0.5-1,1c0,0.5,0.5,1,1,1C1.6,8.8,2,8.3,2,7.8z"/>
	<path d="M14.5,6.7c-0.5,0-1,0.5-1,1c0,0,0,0,0,0c0,0,0,0,0,0c0,0.6,0.4,1,1,1c0.6,0,1-0.4,1-1c0,0,0,0,0,0c0,0,0,0,0-0.1
		C15.5,7.1,15.1,6.7,14.5,6.7z"/>
	<path d="M14.1,10.3c-0.5-0.3-1.1-0.1-1.4,0.4c-0.3,0.5-0.1,1.1,0.4,1.4c0.2,0.1,0.3,0.1,0.5,0.1c0.4,0,0.7-0.2,0.9-0.5
		C14.8,11.2,14.6,10.5,14.1,10.3z"/>
	<path d="M13.6,5.3c0.2,0,0.3,0,0.5-0.1c0.5-0.3,0.6-0.9,0.4-1.4c-0.3-0.5-0.9-0.6-1.4-0.4c-0.5,0.3-0.6,0.9-0.4,1.4
		C12.9,5.1,13.2,5.3,13.6,5.3z"/>
	<path d="M10.7,12.7c-0.5,0.3-0.6,0.9-0.4,1.4c0.2,0.3,0.5,0.5,0.9,0.5c0.2,0,0.3,0,0.5-0.1c0.5-0.3,0.6-0.9,0.4-1.4
		C11.7,12.6,11.1,12.5,10.7,12.7z"/>
	<path d="M10.6,2.7c0.2,0.1,0.3,0.1,0.5,0.1c0.3,0,0.7-0.2,0.9-0.5c0.3-0.5,0.1-1.1-0.4-1.4c0,0,0,0,0,0c-0.5-0.3-1.1-0.1-1.4,0.4
		S10.1,2.5,10.6,2.7z"/>
	<path d="M7.8,13.5c-0.5,0-1,0.4-1,1c0,0.6,0.5,1,1,1c0.5,0,1-0.5,1-1C8.8,14,8.3,13.5,7.8,13.5z"/>
	<path d="M7.7,8.6c0.6,0,1-0.4,1-1V1.1c0,0,0,0,0,0c0,0,0,0,0-0.1c0-0.6-0.5-1-1-1c-0.6,0-1,0.5-1,1c0,0,0,0,0,0c0,0,0,0,0,0.1v6.5
		C6.7,8.2,7.1,8.6,7.7,8.6z"/>
</g>
</svg>
