<svg version="1.1"
	 xmlns="http://www.w3.org/2000/svg" xmlns:xlink="http://www.w3.org/1999/xlink" xmlns:a="http://ns.adobe.com/AdobeSVGViewerExtensions/3.0/"
	 x="0px" y="0px" width="15.2px" height="14.2px" viewBox="0 0 15.2 14.2" style="enable-background:new 0 0 15.2 14.2;"
	 xml:space="preserve" fill="#cc0000">
<defs>
</defs>
<path d="M14.7,7.7L5.5,0.3C5.2,0,4.7-0.1,4.3,0L1.2,0.8C0.5,0.9,0.1,1.5,0.1,2.1L0,5.3c0,0.4,0.2,0.9,0.5,1.1l9.2,7.4
	c0.6,0.5,1.5,0.4,2-0.2l3.2-3.9C15.4,9.1,15.3,8.2,14.7,7.7z M3,4.4C2.5,4.4,2.1,4,2.1,3.5C2.1,3,2.5,2.5,3,2.5S3.9,3,3.9,3.5
	C3.9,4,3.5,4.4,3,4.4z"/>
</svg>
