<svg version="1.1"
	 xmlns="http://www.w3.org/2000/svg" xmlns:xlink="http://www.w3.org/1999/xlink" xmlns:a="http://ns.adobe.com/AdobeSVGViewerExtensions/3.0/"
	 x="0px" y="0px" width="27px" height="27px" viewBox="0 0 25 25" style="enable-background:new 0 0 25 25;"
	 xml:space="preserve">
<path fill="white" d="M22.6,20.7l-7.8-7.8c2.3-3.2,2-7.6-0.9-10.5c-3.2-3.2-8.3-3.2-11.5,0s-3.2,8.3,0,11.5c2.9,2.9,7.3,3.1,10.5,0.9l7.8,7.8
	L22.6,20.7z M4.2,12.1c-2.2-2.2-2.2-5.8,0-8c2.2-2.2,5.8-2.2,8,0c2.2,2.2,2.2,5.8,0,8C9.9,14.3,6.4,14.3,4.2,12.1z"/>
</svg>
